# xmcd
#
# Track frame offsets:
#	150
#	17230
#	30577
#	47280
#	62732
#	76370
#	88425
#	105900
#	140897
#	152935
#	168602
#	183675
#	193542
#	206997
#	224660
#	237557
#	247500
#	264352
#	278335
#	290320
#	300572
#	311922
#	334405
#
# Disc length: 4626 seconds
#
# Revision: 0
# Processed by: cddbd v1.5.1PL0 Copyright (c) Steve Scherf et al.
# Submitted via: EasyCDDAExtractor 8.2.3.1
#
DISCID=56121017
DTITLE=David Allan Coe - A Matter Of Life And Death
DYEAR=1900
DGENRE=
TTITLE0=The Ten Commandments Of Love
TTITLE1=Jody Like A Melody
TTITLE2=Tanya Montana
TTITLE3=If Only Your Eyes Could Lie
TTITLE4=Need A Little Time Off For Bad Behavior
TTITLE5=Southern Star
TTITLE6=Actions Speak Louder Than Words
TTITLE7=Child Of God
TTITLE8=Wild Irish Rose
TTITLE9=A Matter Of Life...And Death
TTITLE10=One Way Ticket To Nashville
TTITLE11=Prisoner's Release
TTITLE12=How High's The Watergate, Martha
TTITLE13=Tricky Dicky, The Only Son Of Kung Fu
TTITLE14=Here's A Song
TTITLE15=Souvenirs And California Memorys
TTITLE16=I Wonder If It's Raining In Kentucky
TTITLE17=Seeing The World
TTITLE18=Paranoic Hippie
TTITLE19=Florida Sunshine
TTITLE20=I Heard Oklahoma Calling Me
TTITLE21=Daddy's Guitar
TTITLE22=In This Land
EXTD=
EXTT0=
EXTT1=
EXTT2=
EXTT3=
EXTT4=
EXTT5=
EXTT6=
EXTT7=
EXTT8=
EXTT9=
EXTT10=
EXTT11=
EXTT12=
EXTT13=
EXTT14=
EXTT15=
EXTT16=
EXTT17=
EXTT18=
EXTT19=
EXTT20=
EXTT21=
EXTT22=
PLAYORDER=
